<svg xmlns="http://www.w3.org/2000/svg" width="124.8" height="48" viewBox="0 0 124.8 48" fill="#ffb700" aria-hidden="true">
    <!-- <title>ideaa</title> -->
    <g class="icon">
        <path d="m7.6 21.8c-1.1-0.1-2-0.1-2.9-0.3-0.5 0-0.7-0.3-0.7-0.6 0-0.4 0.3-0.7 0.7-0.7 1.3 0.1 2.6 0.4 3.8 0.8 0.2 0 0.3 0.1 0.4 0.2s0.2 0.1 0.2 0.3-0.2 0.2-0.3 0.2c-0.4 0.2-0.9 0.1-1.2 0.1z"/>
        <path d="m6.6 11.2c0-0.6 0.6-0.9 1.1-0.7 0.2 0.1 0.4 0.2 0.6 0.4 1.3 0.9 2.6 1.8 3.7 2.9 0.1 0.1 0.3 0.2 0.2 0.4s-0.3 0.1-0.5 0c-1.7-0.6-3.2-1.5-4.8-2.4-0.2-0.1-0.3-0.3-0.3-0.6z"/>
        <path d="m16.2 4c0.3 0.1 0.5 0.3 0.7 0.6 0.6 1.2 1.2 2.5 1.5 3.8 0 0.2 0.1 0.4 0.1 0.6 0 0.1 0 0.2-0.1 0.3s-0.2 0-0.3 0c-0.3-0.2-0.5-0.5-0.8-0.8-0.7-1-1.3-2-1.8-3.1-0.3-0.7-0.2-1 0.4-1.3 0.1-0.1 0.2-0.1 0.3-0.1z"/>
        <path d="m29.5 4c0.6 0.4 0.6 0.7 0.3 1.4-0.7 1.3-1.4 2.5-2.3 3.6-0.1 0.1-0.1 0.2-0.2 0.3s-0.2 0.2-0.3 0.1c-0.2-0.1-0.1-0.2-0.1-0.3 0.1-0.4 0.2-0.8 0.3-1.1 0.3-1.1 0.8-2.1 1.2-3.2 0.1-0.3 0.3-0.5 0.5-0.7 0.2-0.1 0.4-0.1 0.6-0.1z"/>
        <path d="m37.2 10.3c0.4 0 0.6 0.2 0.7 0.4 0.1 0.3 0.1 0.6-0.1 0.8-0.1 0.2-0.3 0.3-0.5 0.4-1.2 0.8-2.4 1.6-3.7 2.2-0.2 0.1-0.4 0.3-0.5 0.1-0.2-0.2 0.1-0.4 0.2-0.5 1.1-1.2 2.3-2.3 3.5-3.3 0.1-0.1 0.3-0.1 0.4-0.1z"/>
        <path d="m37.3 22.3h-0.2c-0.1 0-0.3 0-0.3-0.1-0.1-0.2 0-0.3 0.2-0.4 0.2-0.2 0.4-0.3 0.6-0.4 1.1-0.6 2.3-1.1 3.5-1.5 0.4-0.1 0.7 0 0.8 0.2 0.2 0.3 0.2 0.5 0 0.8-0.1 0.1-0.2 0.2-0.3 0.2-1.3 0.5-2.5 0.9-3.9 1.2h-0.4z"/>
        <path d="m19.3 43.9c-0.5-0.6-0.6-1.1-0.2-1.8 0.1-0.2 0-0.3-0.1-0.4-0.7-0.6-1.2-1.2-1.2-2.2 0-0.3-0.2-1-0.4-1.2-0.5-0.7-0.4-1.5 0.1-2.2 0.5-0.8 1.2-1.2 2-1.6 1.3-0.6 2.6-1 4-1.5 2.2-0.7 4.1-1.8 5.7-3.4 1.9-1.9 3-4.2 3-6.9 0-3.7-2.3-6.9-5.8-8-3.1-1-6.1-0.8-8.8 1.2-2 1.5-3.1 3.5-3.5 6-0.6 4 1.9 7.5 4.6 8.9 1.7 0.9 3.4 0.9 5 0 2.2-1.2 3.4-3.1 3.6-5.6 0.1-1.1-0.4-2.1-1.1-2.9-0.5-0.6-1.3-0.7-2-0.4-0.2 0.1-0.3 0.1-0.2 0.3 0.3 0.7 0.5 1.4 0.2 2.1-0.3 1-1.3 1.6-2.2 1.2-0.7-0.3-1.1-0.9-1-1.6 0.1-0.8 0.5-1.4 1-2 0.2-0.2 0.1-0.3 0-0.4-0.6-0.5-1.2-0.8-1.9-0.7-1.3 0.2-2 1.3-1.7 2.6 0.2 0.8 0.7 1.5 1.3 2 0.5 0.4 1 0.9 1.5 1.3 0.5 0.5 0.9 1 0.8 1.8 0 0 0 0.1-0.1 0.1-0.1-0.1 0-0.3-0.1-0.4-0.1-0.4-0.4-0.7-0.7-1-0.5-0.4-1.1-0.8-1.6-1.1-0.8-0.6-1.6-1.3-2-2.3-0.8-1.9 0.2-3.9 2.2-4.2 1.2-0.2 2.2 0.1 3 1 0.2 0.2 0.3 0.2 0.6 0.1 1.4-0.8 2.9-0.5 4 0.7 1.3 1.5 1.6 3.2 1.1 5-0.9 2.9-2.8 4.9-5.7 5.7-2 0.6-4 0.3-5.8-0.7-3-1.7-5-4.2-5.5-7.6-0.8-5 1.4-9.4 6.2-11.5 4.6-2 9.1-1.5 13 1.6 2.4 1.9 3.7 4.5 3.9 7.6 0.3 5.4-2.2 9.2-6.7 11.9-1.5 0.9-3.2 1.3-4.9 1.7-1 0.3-2.1 0.5-3.1 0.9-0.3 0.1-0.7 0.3-1 0.5-0.2 0.2-0.4 0.4-0.4 0.6s0 0.3 0.1 0.4 0.2 0 0.3-0.1c1.2-0.9 2.6-1.4 4.1-1.7 0.9-0.2 1.9-0.2 2.8 0 0.4 0.1 0.8 0.3 1.1 0.6 0.8 0.8 0.6 1.9-0.4 2.5-0.6 0.4-1.3 0.6-2 0.7-1.8 0.3-3.6 0.3-5.4-0.2-0.2 0-0.2 0-0.2 0.1-0.1 0.2 0 0.4 0.1 0.6 0.1 0.3 0.3 0.5 0.5 0.7 0.4 0.4 0.4 0.4 0.9 0.1 1.3-0.8 2.7-1.1 4.2-0.8 0.7 0.2 1.2 0.5 1.5 1.2 0.2 0.5 0.1 1-0.4 1.3-0.6 0.4-1.3 0.5-2 0.5-1.2 0-2.4-0.2-3.5-0.7-0.1-0.1-0.2 0-0.3 0-0.4 0.3-0.6 0.7-0.4 1.3-0.1 0.1-0.1 0.1-0.1 0.3v0zm6.2-6.5c-1.7-0.4-3.4 0-5 0.7 1.8 0 3.4-0.1 5-0.7zm-2.5-14.7c-0.4 0.4-0.7 0.8-0.9 1.4 0 0.2 0 0.4 0.2 0.5s0.4 0.1 0.6 0 0.2-0.2 0.3-0.4c0.2-0.6 0.1-1.1-0.2-1.5zm-1.9 19c1.1 0.3 2.8 0.2 3.5-0.1-1.2-0.5-2.3-0.3-3.5 0.1z"/>
    </g>
    <g class="wordmark">
        <path d="m45.9 29.2v-9.1c0-0.2 0.1-0.3 0.3-0.5 1.2-0.6 2.4-0.4 3.5 0.4 0.3 0.2 0.4 0.6 0.4 1-0.1 1.3-0.4 2.4-0.7 3.7-0.1 0.6-0.2 1.1-0.2 1.7v9.9c0 1.2 0.1 2.3 0.4 3.5 0.1 0.6-0.2 1.1-0.8 1.1-1.6 0.1-2.9-0.6-2.9-2.7v-9z"/>
        <path d="m48.1 10.8c1.9 0 3.2 1.6 2.7 3.4-0.2 0.9-0.8 1.3-1.8 1.4-1.3 0.1-2.8-1-3-2.4-0.1-1.2 0.4-2.4 2.1-2.4z"/>
        <path d="m64.7 38.1-1.3 1.3c-0.9 0.8-1.8 1.4-3 1.6-2.4 0.4-5.1-0.4-6.6-3.2-0.7-1.3-1-2.7-1.1-4.2-0.1-4.1 0.8-8.1 2.5-11.8 0.4-1 1-1.9 1.8-2.6 1.5-1.3 3.3-1.6 5-0.6 0.9 0.5 1.6 1.2 2.4 1.9l0.2 0.2c0-0.4 0.1-0.7 0.1-1 0.1-1.9 0.2-3.8 0.2-5.7 0-2.3 0.1-4.7 0.1-7 0-0.2 0.1-0.3 0.2-0.4 0.7-0.6 1.5-0.5 2.3-0.1 1 0.5 1.6 1.3 1.6 2.5 0 1.3-0.2 2.5-0.4 3.7-0.3 2-0.5 4-0.5 6l-0.3 8.1c-0.1 2.5-0.2 5-0.2 7.5 0 1.9 0.1 3.9 0.6 5.8 0.1 0.3 0.2 0.6 0.3 0.8s0.1 0.4-0.1 0.6c-0.4 0.6-1.1 0.8-1.8 0.5-0.6-0.2-1.1-0.6-1.4-1.2-0.2-0.2-0.2-0.5-0.3-0.8-0.2-0.7-0.2-1.3-0.3-1.9zm-0.2-10.6c0-0.8 0-1.6-0.2-2.4-0.3-1.1-0.8-2.2-1.7-2.9-1.2-1-2.6-0.9-3.6 0.3-0.3 0.4-0.6 0.8-0.8 1.2-1.3 2.9-2 6-2.1 9.2 0 1.3 0.1 2.6 0.6 3.9 0.3 0.7 0.7 1.3 1.4 1.7 1 0.5 2.3 0.2 3.3-0.6 0.6-0.6 1.1-1.3 1.4-2.1 1.1-2.7 1.6-5.5 1.7-8.3z"/>
        <path d="m70.7 31.6c0.1-3.1 0.8-6.6 2.3-9.8 0.3-0.6 0.6-1.2 1-1.7 1.1-1.4 2.5-1.9 4.3-1.5 1.7 0.5 3.1 1.4 4.4 2.6 0.9 0.8 1.6 1.6 2.1 2.6 0.8 1.6 0.6 3.2 0 4.9-1.2 3-4.6 5.3-7.8 5.3-0.5 0-0.9-0.2-1.3-0.4s-0.8-0.4-1.3-0.6c-0.2 0-0.3 0-0.3 0.2 0 1.2 0.1 2.3 0.7 3.4 0.5 1.1 1.4 1.6 2.6 1.6 1.6 0 2.9-0.6 4-1.7 0.7-0.6 1.2-1.4 1.8-2.1 0.2-0.2 0.3-0.4 0.5-0.6 0.7-0.7 1.8-0.5 2.1 0.5 0.3 0.9 0.2 1.8-0.3 2.6-0.4 0.7-0.9 1.3-1.5 1.8-1.6 1.2-3.3 2.1-5.2 2.3-2.1 0.3-4.1 0-5.7-1.5-1.1-1-1.7-2.4-2-3.8-0.4-1.2-0.5-2.4-0.4-4.1zm4-3.6v0.4c0.1 1.2 0.9 2.3 2 2.6 1.1 0.2 2.1 0 2.9-0.6 2.3-1.8 2.6-5.4 0.7-7.6-0.6-0.7-1.4-1-2.3-0.9s-1.5 0.7-2 1.4c-0.8 1.5-1.2 3-1.3 4.7z"/>
        <path d="m99.7 39.5c-0.6 0.4-1.3 0.7-1.9 1-3.1 1.2-6.1 1-8.9-1-1-0.7-1.7-1.6-1.9-2.8-0.2-1.3 0.2-2.3 1-3.2 1.6-1.8 3.6-3 6-3.5 0.3-0.1 0.6-0.1 1-0.1h4.2c0.4 0 0.5 0 0.5-0.5 0-0.9 0-1.9-0.1-2.8-0.1-1-0.3-1.9-0.6-2.8-0.8-2-3.3-2.6-4.9-1-1.5 1.5-2.5 3.3-2.4 5.5 0 0.9-0.7 1.2-1.4 0.9-1.2-0.5-1.7-1.5-1.4-2.9 0.4-1.9 1.1-3.6 2.1-5.2 0.9-1.4 2.2-2.2 3.9-2.2 2.3 0 4.2 0.8 5.9 2.3 1.1 1 1.8 2.1 2.1 3.6 0.1 0.4 0.1 0.9 0.1 1.3 0 3.2 0 6.4 0.1 9.6v4.9c0 0.6-0.2 0.9-0.8 1.1-0.5 0.2-1.1 0.1-1.6 0-0.5-0.2-1.1-1-1-1.5v-0.7zm-2.7-7.1c-1.5 0-2.8 0.2-4.1 0.8-0.6 0.3-1.2 0.7-1.6 1.3-0.6 1-0.7 2.5 0.7 3.2 0.5 0.3 1.1 0.5 1.7 0.5 1.8 0.1 3.4-0.5 4.7-1.7 0.8-0.7 1.2-1.6 1.2-2.7 0-0.5-0.2-1-0.7-1.2-0.6-0.2-1.3-0.2-1.9-0.2z"/>
        <path d="m120.9 41c-0.3 0.7-1 0.8-1.6 0.8-0.7 0-1.2-0.3-1.6-1-0.2-0.4-0.1-0.9-0.2-1.3-0.1 0-0.2 0-0.3 0.1-1.9 1.2-3.9 1.7-6.2 1.5-2.1-0.2-4-1-5.4-2.6-1.2-1.4-1.2-3.1-0.2-4.6 0.9-1.2 2.1-2.1 3.4-2.8 1.4-0.8 2.8-1.2 4.4-1.2h3.7c0.4 0 0.5 0 0.5-0.5 0-1 0-2.1-0.1-3.1-0.1-0.8-0.2-1.5-0.5-2.3-0.6-1.4-1.6-2.1-3-2.1-0.8 0-1.5 0.4-2.1 1-1.2 1.3-2 2.7-2.3 4.5-0.1 0.4 0 0.8 0 1.1 0 0.6-0.4 0.9-1 0.8-0.8-0.1-2.1-1.3-2-2.4 0.3-2.4 1.2-4.6 2.7-6.5 1-1.2 2.3-1.6 3.8-1.6 2.4 0.1 4.4 1 6 2.7 1.2 1.2 1.8 2.7 1.8 4.4 0 2.6 0 5.3 0.1 7.9v3.4 1c0 0.2-0.1 0.5 0.1 0.7v2.1zm-6.2-8.6c-1.5 0-3 0.2-4.3 0.9-0.8 0.4-1.4 1-1.7 1.8-0.4 1.2 0 2.1 1 2.7 0.5 0.3 1.1 0.4 1.6 0.5 1.8 0.1 3.3-0.5 4.7-1.7 0.8-0.7 1.2-1.6 1.2-2.6 0-0.7-0.3-1.1-0.9-1.3-0.4-0.3-1-0.3-1.6-0.3z"/>
    </g>
</svg>