<svg xmlns="http://www.w3.org/2000/svg" width="48" height="48" viewBox="0 0 48 48" fill="#ffb700" aria-hidden="true">
    <!-- <title>ideaa</title> -->
    <g class="icon">
        <path d="m8.5 21.8c-1.1-0.1-2-0.1-2.9-0.3-0.4 0-0.6-0.2-0.6-0.6s0.3-0.8 0.7-0.7c1.3 0.1 2.7 0.4 4 0.8 0.1 0 0.2 0.1 0.2 0.1 0.1 0.1 0.4 0.1 0.3 0.4 0 0.2-0.2 0.2-0.4 0.3-0.5 0.1-1 0-1.3 0z"/>
        <path d="m7.6 11.2c0-0.6 0.6-0.9 1.1-0.7 0.2 0.1 0.4 0.2 0.6 0.4 1.3 0.9 2.6 1.8 3.7 2.9 0.1 0.1 0.4 0.2 0.3 0.4s-0.4 0.1-0.5 0c-1.7-0.6-3.2-1.5-4.8-2.4-0.3-0.1-0.5-0.3-0.4-0.6z"/>
        <path d="m17.2 4c0.3 0.1 0.5 0.3 0.7 0.6 0.6 1.2 1.2 2.5 1.5 3.8 0 0.2 0.1 0.4 0.1 0.6 0 0.1 0 0.2-0.1 0.3s-0.2 0-0.3-0.1c-0.3-0.2-0.5-0.5-0.8-0.8-0.7-1-1.3-2-1.8-3.1-0.3-0.7-0.2-1 0.4-1.3h0.3z"/>
        <path d="m30.5 4c0.6 0.5 0.6 0.7 0.3 1.4-0.7 1.3-1.4 2.5-2.3 3.6-0.1 0.1-0.1 0.2-0.2 0.3s-0.2 0.2-0.3 0.1c-0.2-0.1-0.1-0.2-0.1-0.4 0.1-0.4 0.2-0.8 0.3-1.1 0.3-1.1 0.8-2.1 1.2-3.2 0.1-0.3 0.3-0.5 0.5-0.7h0.6z"/>
        <path d="m38.3 10.3c0.4 0 0.6 0.2 0.7 0.4 0.1 0.3 0.1 0.6-0.1 0.8s-0.3 0.3-0.5 0.4c-1.2 0.8-2.4 1.6-3.7 2.2-0.2 0.1-0.4 0.3-0.5 0.1-0.2-0.2 0.1-0.4 0.2-0.5 1.1-1.2 2.3-2.3 3.5-3.3 0-0.1 0.2-0.2 0.4-0.1z"/>
        <path d="m38.3 22.3h-0.2c-0.1 0-0.2 0-0.3-0.1 0-0.1 0-0.2 0.1-0.3 0.2-0.2 0.4-0.4 0.6-0.5 1.1-0.6 2.3-1.1 3.6-1.6 0.5-0.2 1 0.2 0.9 0.7 0 0.2-0.1 0.4-0.3 0.5-1.4 0.5-2.8 1.1-4.4 1.3z"/>
        <path d="m20.3 44c-0.5-0.6-0.6-1.2-0.2-1.9 0.1-0.2 0-0.2-0.1-0.3-0.6-0.5-1-1-1.2-1.7-0.1-0.3-0.1-0.7 0-1 0-0.1 0.1-0.2-0.1-0.3-0.9-0.8-0.8-1.9-0.3-2.7 0.5-0.7 1.2-1.1 2-1.5 1.3-0.6 2.7-1 4-1.5 2.2-0.7 4.1-1.8 5.7-3.4 1.9-1.9 2.9-4.2 3-6.9 0-3.6-2.3-6.9-5.7-8-3.1-1-6.2-0.8-8.9 1.2-2 1.5-3.2 3.6-3.5 6-0.7 4 2 7.6 4.7 9 1.7 0.8 3.3 0.8 5-0.1 2.2-1.2 3.4-3.1 3.6-5.5 0.1-1.1-0.3-2.1-1.1-2.9-0.6-0.6-1.3-0.8-2.1-0.4-0.1-0.1-0.2-0.1-0.1 0.1 0.3 0.7 0.5 1.4 0.2 2.1-0.3 0.9-1.1 1.5-2 1.3-0.8-0.2-1.3-0.9-1.2-1.7s0.5-1.4 1-2c0.2-0.2 0.1-0.3 0-0.4-0.6-0.5-1.2-0.8-2-0.7-1.3 0.2-2 1.3-1.7 2.7 0.2 0.8 0.7 1.4 1.3 2 0.4 0.4 0.9 0.8 1.3 1.2 0.6 0.5 1 1.1 1 1.9v0.1c-0.1 0-0.1 0-0.1-0.1 0-0.6-0.3-1-0.7-1.4-0.5-0.4-1-0.8-1.6-1.1-0.8-0.5-1.5-1.1-1.9-2-0.7-1.4-0.4-3 0.7-3.9s2.9-0.9 4.1 0.1c0.2 0.2 0.4 0.5 0.6 0.5s0.5-0.2 0.7-0.3c1.3-0.5 2.6-0.2 3.6 0.9 1.3 1.5 1.6 3.2 1.1 5-0.9 2.9-2.8 4.9-5.7 5.8-2 0.6-4 0.3-5.8-0.8-2.9-1.6-4.9-4.1-5.5-7.4-0.9-4.9 1.2-9.4 5.9-11.7 4.2-2.1 9.7-1.5 13.3 1.5 2.4 2 3.7 4.6 3.9 7.6 0.3 5.4-2.2 9.3-6.8 11.9-1.5 0.9-3.2 1.3-4.9 1.7-1.1 0.3-2.2 0.5-3.2 1-0.3 0.1-0.6 0.3-0.8 0.5s-0.4 0.4-0.4 0.6 0 0.3 0.1 0.4 0.2 0 0.3-0.1c2-1.4 4.2-2 6.7-1.8 0.4 0 0.7 0.2 1 0.4 1 0.6 1.1 2 0.1 2.6-0.5 0.4-1.2 0.6-1.8 0.7-1.9 0.4-3.9 0.4-5.8-0.1-0.2 0-0.2 0-0.3 0.2 0 0.2 0 0.4 0.1 0.6 0.1 0.3 0.3 0.5 0.5 0.7 0.4 0.4 0.4 0.4 0.9 0.1 1.3-0.7 2.7-1.1 4.2-0.8 0.7 0.2 1.2 0.5 1.5 1.2 0.2 0.5 0.1 1-0.4 1.2-0.5 0.3-1 0.4-1.5 0.4-1.4 0.1-2.8-0.1-4-0.7-0.1-0.1-0.2 0-0.3 0.1-0.4 0.3-0.5 0.7-0.4 1.3v0.2 0.3zm1.3-5.9c1.7 0.1 3.4 0 5-0.7-1.8-0.3-3.4 0-5 0.7zm2.4-15.4c-0.4 0.4-0.7 0.8-0.9 1.4 0 0.2 0 0.4 0.2 0.5s0.4 0.1 0.6 0 0.3-0.3 0.3-0.5c0.2-0.5 0.1-1-0.2-1.4zm1.6 19c-0.4-0.5-2.8-0.4-3.4 0 0.9 0.3 2.4 0.3 3.4 0z"/>
    </g>
</svg>