<svg xmlns="http://www.w3.org/2000/svg" width="48" height="48" viewBox="0 0 48 48" fill="#ffb700" aria-hidden="true"><g class="icon"><path d="M8.5 21.8c-1.1-.1-2-.1-2.9-.3-.4 0-.6-.2-.6-.6s.3-.8.7-.7c1.3.1 2.7.4 4 .8.1 0 .2.1.2.1.1.1.4.1.3.4 0 .2-.2.2-.4.3-.5.1-1 0-1.3 0zM7.6 11.2c0-.6.6-.9 1.1-.7.2.1.4.2.6.4 1.3.9 2.6 1.8 3.7 2.9.1.1.4.2.3.4s-.4.1-.5 0c-1.7-.6-3.2-1.5-4.8-2.4-.3-.1-.5-.3-.4-.6zM17.2 4c.3.1.5.3.7.6.6 1.2 1.2 2.5 1.5 3.8 0 .2.1.4.1.6 0 .1 0 .2-.1.3s-.2 0-.3-.1c-.3-.2-.5-.5-.8-.8-.7-1-1.3-2-1.8-3.1-.3-.7-.2-1 .4-1.3h.3zM30.5 4c.6.5.6.7.3 1.4-.7 1.3-1.4 2.5-2.3 3.6-.1.1-.1.2-.2.3s-.2.2-.3.1c-.2-.1-.1-.2-.1-.4.1-.4.2-.8.3-1.1.3-1.1.8-2.1 1.2-3.2.1-.3.3-.5.5-.7h.6zM38.3 10.3c.4 0 .6.2.7.4.1.3.1.6-.1.8s-.3.3-.5.4c-1.2.8-2.4 1.6-3.7 2.2-.2.1-.4.3-.5.1-.2-.2.1-.4.2-.5 1.1-1.2 2.3-2.3 3.5-3.3 0-.1.2-.2.4-.1zM38.3 22.3h-.2c-.1 0-.2 0-.3-.1 0-.1 0-.2.1-.3.2-.2.4-.4.6-.5 1.1-.6 2.3-1.1 3.6-1.6.5-.2 1 .2.9.7 0 .2-.1.4-.3.5-1.4.5-2.8 1.1-4.4 1.3zM20.3 44c-.5-.6-.6-1.2-.2-1.9.1-.2 0-.2-.1-.3-.6-.5-1-1-1.2-1.7-.1-.3-.1-.7 0-1 0-.1.1-.2-.1-.3-.9-.8-.8-1.9-.3-2.7.5-.7 1.2-1.1 2-1.5 1.3-.6 2.7-1 4-1.5 2.2-.7 4.1-1.8 5.7-3.4 1.9-1.9 2.9-4.2 3-6.9 0-3.6-2.3-6.9-5.7-8-3.1-1-6.2-.8-8.9 1.2-2 1.5-3.2 3.6-3.5 6-.7 4 2 7.6 4.7 9 1.7.8 3.3.8 5-.1 2.2-1.2 3.4-3.1 3.6-5.5.1-1.1-.3-2.1-1.1-2.9-.6-.6-1.3-.8-2.1-.4-.1-.1-.2-.1-.1.1.3.7.5 1.4.2 2.1-.3.9-1.1 1.5-2 1.3-.8-.2-1.3-.9-1.2-1.7s.5-1.4 1-2c.2-.2.1-.3 0-.4-.6-.5-1.2-.8-2-.7-1.3.2-2 1.3-1.7 2.7.2.8.7 1.4 1.3 2 .4.4.9.8 1.3 1.2.6.5 1 1.1 1 1.9v.1c-.1 0-.1 0-.1-.1 0-.6-.3-1-.7-1.4-.5-.4-1-.8-1.6-1.1-.8-.5-1.5-1.1-1.9-2-.7-1.4-.4-3 .7-3.9s2.9-.9 4.1.1c.2.2.4.5.6.5s.5-.2.7-.3c1.3-.5 2.6-.2 3.6.9 1.3 1.5 1.6 3.2 1.1 5-.9 2.9-2.8 4.9-5.7 5.8-2 .6-4 .3-5.8-.8-2.9-1.6-4.9-4.1-5.5-7.4-.9-4.9 1.2-9.4 5.9-11.7 4.2-2.1 9.7-1.5 13.3 1.5 2.4 2 3.7 4.6 3.9 7.6.3 5.4-2.2 9.3-6.8 11.9-1.5.9-3.2 1.3-4.9 1.7-1.1.3-2.2.5-3.2 1-.3.1-.6.3-.8.5s-.4.4-.4.6 0 .3.1.4.2 0 .3-.1c2-1.4 4.2-2 6.7-1.8.4 0 .7.2 1 .4 1 .6 1.1 2 .1 2.6-.5.4-1.2.6-1.8.7-1.9.4-3.9.4-5.8-.1-.2 0-.2 0-.3.2 0 .2 0 .4.1.6.1.3.3.5.5.7.4.4.4.4.9.1 1.3-.7 2.7-1.1 4.2-.8.7.2 1.2.5 1.5 1.2.2.5.1 1-.4 1.2-.5.3-1 .4-1.5.4-1.4.1-2.8-.1-4-.7-.1-.1-.2 0-.3.1-.4.3-.5.7-.4 1.3v.5zm1.3-5.9c1.7.1 3.4 0 5-.7-1.8-.3-3.4 0-5 .7zM24 22.7c-.4.4-.7.8-.9 1.4 0 .2 0 .4.2.5s.4.1.6 0 .3-.3.3-.5c.2-.5.1-1-.2-1.4zm1.6 19c-.4-.5-2.8-.4-3.4 0 .9.3 2.4.3 3.4 0z"/></g></svg>